<svg width="86" height="42" viewBox="0 0 86 42" fill="none" xmlns="http://www.w3.org/2000/svg">
<path d="M67.0525 31.4999C65.5045 31.4999 64.1189 31.1596 62.8958 30.4791C61.6727 29.7791 60.7076 28.8166 60.0005 27.5916C59.3125 26.3666 58.9685 24.9763 58.9685 23.4207C58.9685 21.8652 59.3125 20.4749 60.0005 19.2499C60.7076 18.0249 61.6727 17.0721 62.8958 16.3916C64.1189 15.6916 65.5045 15.3416 67.0525 15.3416C68.5814 15.3416 69.9574 15.6916 71.1805 16.3916C72.4036 17.0721 73.3592 18.0249 74.0472 19.2499C74.7352 20.4749 75.0792 21.8652 75.0792 23.4207C75.0792 24.9763 74.7352 26.3666 74.0472 27.5916C73.3592 28.8166 72.4036 29.7791 71.1805 30.4791C69.9574 31.1596 68.5814 31.4999 67.0525 31.4999ZM67.0525 27.7666C68.1418 27.7666 69.0305 27.3777 69.7185 26.5999C70.4256 25.8027 70.7792 24.7429 70.7792 23.4207C70.7792 22.0985 70.4256 21.0485 69.7185 20.2707C69.0305 19.4735 68.1418 19.0749 67.0525 19.0749C65.9632 19.0749 65.0649 19.4735 64.3578 20.2707C63.6507 21.0485 63.2972 22.0985 63.2972 23.4207C63.2972 24.7429 63.6507 25.8027 64.3578 26.5999C65.0649 27.3777 65.9632 27.7666 67.0525 27.7666Z" fill="#2A4AFF"/>
<path d="M58.835 30.5084C58.4146 30.839 57.8986 31.0917 57.287 31.2667C56.6946 31.4223 56.0544 31.5001 55.3664 31.5001C53.6273 31.5001 52.2799 31.0237 51.3244 30.0709C50.3688 29.1181 49.891 27.7181 49.891 25.8709V19.4251H47.655V15.9251H49.891V12.1042H54.1624V15.9251H57.803V19.4251H54.1624V25.8126C54.1624 26.4737 54.3152 26.989 54.621 27.3584C54.9459 27.7084 55.395 27.8834 55.9684 27.8834C56.6372 27.8834 57.2106 27.689 57.6884 27.3001L58.835 30.5084Z" fill="#2A4AFF"/>
<path d="M47.5726 30.5084C47.1521 30.839 46.6361 31.0917 46.0246 31.2667C45.4321 31.4223 44.7919 31.5001 44.1039 31.5001C42.3648 31.5001 41.0175 31.0237 40.0619 30.0709C39.1064 29.1181 38.6286 27.7181 38.6286 25.8709V19.4251H36.3926V15.9251H38.6286V12.1042H42.8999V15.9251H46.5406V19.4251H42.8999V25.8126C42.8999 26.4737 43.0528 26.989 43.3586 27.3584C43.6835 27.7084 44.1326 27.8834 44.7059 27.8834C45.3748 27.8834 45.9481 27.689 46.4259 27.3001L47.5726 30.5084Z" fill="#2A4AFF"/>
<path d="M34.7498 15.575V31.2666H30.4785V15.575H34.7498Z" fill="#2A4AFF"/>
<path d="M27.1473 31.2667H23.0766V29.4583C22.0255 30.8194 20.5062 31.5 18.5186 31.5C17.1426 31.5 15.8908 31.1694 14.7633 30.5083C13.6548 29.8472 12.7757 28.9042 12.1259 27.6792C11.4953 26.4542 11.1799 25.0347 11.1799 23.4208C11.1799 21.8069 11.4953 20.3875 12.1259 19.1625C12.7757 17.9375 13.6548 16.9944 14.7633 16.3333C15.8908 15.6722 17.1426 15.3417 18.5186 15.3417C20.3915 15.3417 21.8535 15.9736 22.9046 17.2375V9.625H27.1473V31.2667ZM19.2639 27.7667C20.3342 27.7667 21.2228 27.3778 21.9299 26.6C22.637 25.8028 22.9906 24.7431 22.9906 23.4208C22.9906 22.0986 22.637 21.0486 21.9299 20.2708C21.2228 19.4736 20.3342 19.075 19.2639 19.075C18.1555 19.075 17.2477 19.4736 16.5406 20.2708C15.8335 21.0486 15.4799 22.0986 15.4799 23.4208C15.4799 24.7431 15.8335 25.8028 16.5406 26.6C17.2477 27.3778 18.1555 27.7667 19.2639 27.7667Z" fill="#2A4AFF"/>
<path d="M30.7075 14.4083C31.2044 14.8944 31.8446 15.1375 32.6282 15.1375C33.4117 15.1375 34.0424 14.8944 34.5202 14.4083C35.017 13.9028 35.2655 13.2708 35.2655 12.5125C35.2655 11.8125 35.017 11.2292 34.5202 10.7625C34.0424 10.2958 33.4117 10.0625 32.6282 10.0625C31.8446 10.0625 31.2044 10.3056 30.7075 10.7917C30.2106 11.2778 29.9622 11.8806 29.9622 12.6C29.9622 13.3194 30.2106 13.9222 30.7075 14.4083Z" fill="#233182"/>
</svg>
